<svg width="32" height="32" viewBox="0 0 32 32" fill="none" xmlns="http://www.w3.org/2000/svg">
<path fill-rule="evenodd" clip-rule="evenodd" d="M16 0.571442C12.5179 0.571442 9.11235 0.755965 5.85134 1.09848C3.44631 1.35109 1.4615 3.165 1.10956 5.60228C0.755073 8.0572 0.571411 10.6181 0.571411 13.2184C0.571411 15.7346 0.755388 18.1773 1.08582 20.5509C1.44894 23.1593 3.63674 25.0126 6.15358 25.2469L6.65134 25.2933L7.16483 25.341V30.2857C7.16483 30.6734 7.36133 31.0345 7.68679 31.2453C8.01226 31.4558 8.42229 31.4871 8.77594 31.3282C11.9861 29.8864 13.928 28.4885 16.272 25.8649C19.6214 25.8544 22.8622 25.6485 26.0007 25.3296C28.4864 25.0773 30.5182 23.1849 30.8713 20.6832C31.211 18.2778 31.4286 15.7878 31.4286 13.2184C31.4286 10.6352 31.2302 8.10278 30.8834 5.6727C30.5312 3.2034 28.5207 1.35671 26.0795 1.10431C22.8203 0.767302 19.4745 0.571442 16 0.571442Z" fill="#6C2BD9"/>
<path fill-rule="evenodd" clip-rule="evenodd" d="M7.71434 10.8214C6.92536 10.8214 6.28577 11.461 6.28577 12.25C6.28577 13.039 6.92536 13.6786 7.71434 13.6786H10.0001C10.789 13.6786 11.4286 13.039 11.4286 12.25C11.4286 11.461 10.789 10.8214 10.0001 10.8214H7.71434ZM16.2858 10.8214C15.4968 10.8214 14.8572 11.461 14.8572 12.25C14.8572 13.039 15.4968 13.6786 16.2858 13.6786H24.2858C25.0748 13.6786 25.7143 13.039 25.7143 12.25C25.7143 11.461 25.0748 10.8214 24.2858 10.8214H16.2858ZM6.28577 17.9643C6.28577 17.1753 6.92536 16.5357 7.71434 16.5357H14.5715C15.3605 16.5357 16.0001 17.1753 16.0001 17.9643C16.0001 18.7533 15.3605 19.3929 14.5715 19.3929H7.71434C6.92536 19.3929 6.28577 18.7533 6.28577 17.9643ZM20.9314 16.5357C20.1424 16.5357 19.5028 17.1753 19.5028 17.9643C19.5028 18.7533 20.1424 19.3929 20.9314 19.3929H24.2858C25.0748 19.3929 25.7143 18.7533 25.7143 17.9643C25.7143 17.1753 25.0748 16.5357 24.2858 16.5357H20.9314Z" fill="#C4AAF0"/>
</svg>
